<svg xmlns="http://www.w3.org/2000/svg" viewBox="0 0 24.08 26"><title>Ресурс 1@шыn</title><g id="Слой_2" data-name="Слой 2"><g id="Слой_1-2" data-name="Слой 1"><path d="M12.38,0,4.1,8.79l1.14,9.4,7.14,3.14v.11l7.13-3.14,1.15-9.39Z" style="fill:#ffde52"></path><path d="M9.21,17.91V8.14h1.42l.23.88a2.58,2.58,0,0,1,2.2-1,2.86,2.86,0,0,1,2.26,1,3.79,3.79,0,0,1,.89,2.59,3.79,3.79,0,0,1-.89,2.59,2.86,2.86,0,0,1-2.26,1A2.49,2.49,0,0,1,11,14.22v3.69Zm5.18-6.34A2.35,2.35,0,0,0,13.88,10a1.57,1.57,0,0,0-1.29-.61,1.53,1.53,0,0,0-1.17.49A1.69,1.69,0,0,0,11,11.11V12a1.73,1.73,0,0,0,.45,1.23,1.53,1.53,0,0,0,1.17.49,1.57,1.57,0,0,0,1.29-.61A2.39,2.39,0,0,0,14.39,11.57Z" style="fill:#e4973b"></path><path d="M13.06,21.1v-.05L5.92,17.91,4.78,8.51,12.61.2,12.38,0,4.1,8.75l1.14,9.39,7.14,3.14v.12Z" style="fill:#fff"></path><path d="M12.38,0,.3,6.4,4.1,8.79Z" style="fill:#ffde52"></path><path d="M9.15,1.71,3.89,7.3,1.47,5.78.3,6.4,4.1,8.79,12.38,0Z" style="fill:#fff;opacity:0.4000000059604645;isolation:isolate"></path><path d="M.3,6.41,1,20.48l4.28-2.29L5,16.53,4.1,8.79Z" style="fill:#ffbc45"></path><path d="M24.08,6.26,20.66,8.91,12.38,0Z" style="fill:#ffbc45"></path><path d="M5.24,18.19l7.14,3.14V26L1,20.48Z" style="fill:#e5a535"></path><path d="M12.38,21.33l7.13-3,4.57,2.18L12.38,26Z" style="fill:#ffbc45"></path><path d="M20.66,8.91,19.51,18.3l4.57,2.18V6.26Z" style="fill:#e5a535"></path><path d="M22.54,10.44l1.54-2.29v-2L20.66,8.82l-1.15,9.4,1.17.56Z" style="fill:#c97231;opacity:0.5019999742507935;isolation:isolate"></path><path d="M4.8,18.43C8.09,20,10,21.14,10.49,21.87A20.42,20.42,0,0,1,12.38,26V21.33L5.24,18.1Z" style="fill:#c97231;opacity:0.5019999742507935;isolation:isolate"></path><path d="M.36,7.42A3.05,3.05,0,0,1,2.77,9.68a60.16,60.16,0,0,1,2,8.75l.49-.24L4.1,8.79.3,6.41Z" style="fill:#c97231;opacity:0.5019999742507935;isolation:isolate"></path><path d="M1,20.48l4.33-2.29,0-.36Z" style="fill:#fff"></path><path d="M20.66,8.82l3.42-2.56L20.15,8.37Z" style="fill:#fff"></path><path d="M8.64,18.2a4.34,4.34,0,1,1-3.77-4.84A4.34,4.34,0,0,1,8.64,18.2Z" style="fill:#fff;opacity:0.10199999809265137;isolation:isolate"></path><path d="M7.9,17.93a3.2,3.2,0,1,1-2.79-3.57A3.22,3.22,0,0,1,7.9,17.93Z" style="fill:#fff;opacity:0.20000000298023224;isolation:isolate"></path><path d="M5,15.36c-.26.95-.27,2.18-2,2.11a3.52,3.52,0,0,1,1.32,1.1,4,4,0,0,1,.42,1.74c.17-.55.1-1.09.52-1.62a1.63,1.63,0,0,1,1.29-.63c-.52-.38-1-.39-1.25-1.09a4.92,4.92,0,0,1-.23-.81c0-.29,0-.7-.12-.92Z" style="fill:#fff;opacity:0.7020000219345093;isolation:isolate"></path><path d="M5.38,17.67c-.13-.4-.28-.36-.4-.18-.62-.3-.53,1.71.19,1.2C5.42,18.52,5.46,17.93,5.38,17.67Z" style="fill:#fff"></path><path d="M23.39,8.92a3.23,3.23,0,1,1-2.81-3.61A3.23,3.23,0,0,1,23.39,8.92Z" style="fill:#fff;opacity:0.10199999809265137;isolation:isolate"></path><path d="M22.84,8.73a2.39,2.39,0,1,1-2.08-2.67A2.4,2.4,0,0,1,22.84,8.73Z" style="fill:#fff;opacity:0.20000000298023224;isolation:isolate"></path><path d="M20.67,6.8c-.19.71-.2,1.63-1.5,1.58a2.51,2.51,0,0,1,1,.82,2.84,2.84,0,0,1,.32,1.3,2.82,2.82,0,0,1,.39-1.21,1.17,1.17,0,0,1,1-.47c-.39-.28-.75-.29-.94-.81a4.63,4.63,0,0,1-.17-.61c0-.21,0-.52-.09-.69Z" style="fill:#fff;opacity:0.7020000219345093;isolation:isolate"></path><path d="M21,8.53c-.1-.3-.21-.27-.3-.14-.46-.22-.4,1.28.14.9A.83.83,0,0,0,21,8.53Z" style="fill:#fff"></path><path d="M12.34,22.49,16.94,21c2.95-.81,5-.85,6.26-.14l.88-.42L19.51,18.3l-7.13,3Z" style="fill:#c97231;opacity:0.5019999742507935;isolation:isolate"></path><path d="M12.38,21.33V26l.67-5Z" style="fill:#fff"></path></g></g></svg>